<mxfile host="app.diagrams.net" modified="2024-06-14T00:30:31.269Z" agent="Mozilla/5.0 (Windows NT 10.0; Win64; x64) AppleWebKit/537.36 (KHTML, like Gecko) Chrome/125.0.0.0 Safari/537.36" version="24.5.4" etag="SacB8NFnA-OWmYInjqDJ" type="github">
  <diagram name="Страница — 1" id="O4S-hF7J9QuovljYV34M">
    <mxGraphModel>
      <root>
        <mxCell id="0" />
        <mxCell id="1" parent="0" />
      </root>
    </mxGraphModel>
  </diagram>
</mxfile>
